<svg width="24" height="24" viewBox="0 0 24 24" fill="none" xmlns="http://www.w3.org/2000/svg">
<path fill-rule="evenodd" clip-rule="evenodd" d="M12 3.73913C7.43765 3.73913 3.73913 7.43765 3.73913 12C3.73913 13.9381 4.40659 15.7204 5.52419 17.1294C6.78274 14.849 9.21089 13.3043 11.9998 13.3043C14.7889 13.3043 17.2171 14.8491 18.4756 17.1297C19.5933 15.7206 20.2609 13.9383 20.2609 12C20.2609 7.43765 16.5624 3.73913 12 3.73913ZM12 20.2609C10.0378 20.2609 8.2354 19.5767 6.81829 18.434C7.69066 16.4382 9.68236 15.0435 11.9998 15.0435C14.3174 15.0435 16.3091 16.4383 17.1814 18.4342C15.7644 19.5768 13.9621 20.2609 12 20.2609ZM2 12C2 6.47715 6.47715 2 12 2C17.5228 2 22 6.47715 22 12C22 17.5228 17.5228 22 12 22C6.47715 22 2 17.5228 2 12ZM10.6957 9.3913C10.6957 8.67093 11.2796 8.08696 12 8.08696C12.7204 8.08696 13.3043 8.67093 13.3043 9.3913C13.3043 10.1117 12.7204 10.6957 12 10.6957C11.2796 10.6957 10.6957 10.1117 10.6957 9.3913ZM12 6.34783C10.3191 6.34783 8.95652 7.71044 8.95652 9.3913C8.95652 11.0722 10.3191 12.4348 12 12.4348C13.6809 12.4348 15.0435 11.0722 15.0435 9.3913C15.0435 7.71044 13.6809 6.34783 12 6.34783Z" fill="white"/>
</svg>
